<svg width="24" height="24" viewBox="0 0 24 24" fill="none" xmlns="http://www.w3.org/2000/svg">
<path fill-rule="evenodd" clip-rule="evenodd" d="M14.5858 6.47129C15.3669 5.69023 16.6331 5.69024 17.4142 6.47129L17.5286 6.58567C18.3097 7.36671 18.3097 8.63305 17.5286 9.41409L13.4142 13.5285C12.6331 14.3095 11.3669 14.3095 10.5858 13.5285L10.4714 13.4141C9.69035 12.6331 9.69035 11.3667 10.4714 10.5857L14.5858 6.47129ZM16.4714 7.41409C16.2111 7.15375 15.7889 7.15375 15.5286 7.41409L11.4142 11.5285C11.1539 11.7889 11.1539 12.2109 11.4142 12.4713L11.5286 12.5857C11.7889 12.846 12.2111 12.846 12.4714 12.5857L16.5858 8.47129C16.8461 8.21094 16.8461 7.78883 16.5858 7.52848L16.4714 7.41409ZM8.33333 14.6665C7.78105 14.6665 7.33333 15.1143 7.33333 15.6665V16.6665H8.33333C8.82097 16.6665 9.33333 16.1967 9.33333 15.6665C9.33333 15.1143 8.88562 14.6665 8.33333 14.6665ZM6 15.6665C6 14.3779 7.04467 13.3332 8.33333 13.3332C9.622 13.3332 10.6667 14.3779 10.6667 15.6665C10.6667 16.9773 9.51237 17.9999 8.33333 17.9999H6.66667C6.29848 17.9999 6 17.7014 6 17.3332V15.6665Z" fill="#737373"/>
</svg>
