<svg width="24" height="24" viewBox="0 0 24 24" fill="none" xmlns="http://www.w3.org/2000/svg">
<path fill-rule="evenodd" clip-rule="evenodd" d="M11.9191 6.47129C12.7002 5.69023 13.9665 5.69024 14.7476 6.47129L16.8619 8.58567C17.643 9.36672 17.643 10.633 16.8619 11.4141L12.4714 15.8046C12.3464 15.9297 12.1768 15.9999 12 15.9999H8C7.82319 15.9999 7.65362 15.9297 7.52859 15.8046L6.47141 14.7475C5.69035 13.9664 5.69036 12.7001 6.47141 11.919L11.9191 6.47129ZM13.8047 7.41409C13.5444 7.15375 13.1223 7.15375 12.8619 7.41409L10.6095 9.66655L13.6666 12.7237L15.9191 10.4713C16.1794 10.2109 16.1794 9.78883 15.9191 9.52848L13.8047 7.41409ZM12.7238 13.6665L9.66667 10.6094L7.41421 12.8618C7.15387 13.1222 7.15387 13.5443 7.41421 13.8046L8.27615 14.6665H11.7238L12.7238 13.6665ZM8 17.3332C8 16.9651 8.29848 16.6665 8.66667 16.6665H17.3333C17.7015 16.6665 18 16.9651 18 17.3332C18 17.7014 17.7015 17.9999 17.3333 17.9999H8.66667C8.29848 17.9999 8 17.7014 8 17.3332Z" fill="#737373"/>
</svg>
