<svg width="24" height="24" viewBox="0 0 24 24" fill="none" xmlns="http://www.w3.org/2000/svg">
<path fill-rule="evenodd" clip-rule="evenodd" d="M17.8047 9.52867C18.0651 9.78903 18.0651 10.2111 17.8047 10.4715L15.1381 13.1381C14.8777 13.3985 14.4556 13.3985 14.1953 13.1381C13.9349 12.8778 13.9349 12.4557 14.1953 12.1953L15.7239 10.6667H8C7.63181 10.6667 7.33333 10.9652 7.33333 11.3334V16.6667C7.33333 17.0349 7.03485 17.3334 6.66667 17.3334C6.29848 17.3334 6 17.0349 6 16.6667V11.3334C6 10.2288 6.89543 9.33341 8 9.33341H15.7239L14.1953 7.80482C13.9349 7.54447 13.9349 7.12236 14.1953 6.86201C14.4556 6.60166 14.8777 6.60166 15.1381 6.86201L17.8047 9.52867Z" fill="#404040"/>
</svg>
