<svg width="24" height="24" viewBox="0 0 24 24" fill="none" xmlns="http://www.w3.org/2000/svg">
<path fill-rule="evenodd" clip-rule="evenodd" d="M6.19525 9.52867C5.93492 9.78903 5.93492 10.2111 6.19525 10.4715L8.86192 13.1381C9.12225 13.3985 9.54438 13.3985 9.80472 13.1381C10.0651 12.8778 10.0651 12.4557 9.80472 12.1953L8.27612 10.6667H16C16.3682 10.6667 16.6667 10.9652 16.6667 11.3334V16.6667C16.6667 17.0349 16.9651 17.3334 17.3333 17.3334C17.7015 17.3334 18 17.0349 18 16.6667V11.3334C18 10.2288 17.1046 9.33341 16 9.33341H8.27612L9.80472 7.80482C10.0651 7.54447 10.0651 7.12236 9.80472 6.86201C9.54438 6.60166 9.12225 6.60166 8.86192 6.86201L6.19525 9.52867Z" fill="#404040"/>
</svg>
